<?xml version="1.0" encoding="utf-8"?>
<!-- Generator: Adobe Illustrator 23.0.1, SVG Export Plug-In . SVG Version: 6.00 Build 0)  -->
<svg version="1.1" id="Layer_1" xmlns="http://www.w3.org/2000/svg" xmlns:xlink="http://www.w3.org/1999/xlink" x="0px" y="0px"
	 viewBox="0 0 1400 980" style="enable-background:new 0 0 1400 980;" xml:space="preserve">
<style type="text/css">
	.st0{display:none;}
	.st1{display:none;fill:#80CCBA;}
	.st2{fill:none;stroke:#FFFFFF;stroke-width:5;stroke-miterlimit:10;}
	.st3{fill:#6D6E71;}
	.st4{fill:#999B9E;}
	.st5{fill:#BCBEC0;}
	.st6{fill:#F1F2F2;}
	.st7{fill:#005F90;}
	.st8{fill:#D1D3D4;}
	.st9{fill:#B8BABC;}
	.st10{fill:none;stroke:#6D6E71;stroke-width:8;stroke-linecap:round;stroke-linejoin:round;stroke-miterlimit:10;}
	.st11{display:none;opacity:0.71;}
	.st12{display:inline;fill:#F1F2F2;}
	.st13{fill:#E2AC64;}
	.st14{fill:#F47920;}
	.st15{fill:#F78E1E;}
	.st16{fill:#D5D7D8;}
	.st17{fill:none;stroke:#E0E1E2;stroke-width:5;stroke-miterlimit:10;}
	.st18{fill:#414042;}
	.st19{fill:#565759;}
	.st20{fill:#DADBDC;}
	.st21{fill:#EFCE92;}
	.st22{fill:#0087CD;}
	.st23{fill:#A7A9AC;}
	.st24{fill:#0072AE;}
	.st25{fill:#FAA21B;}
	.st26{fill:#00537F;}
	.st27{fill:#E6E7E8;}
	.st28{fill:#FFFFFF;}
	.st29{display:inline;}
	.st30{fill:#FDB913;}
	.st31{fill:#F7941D;}
	
		.st32{display:inline;fill:#6D6E71;stroke:#FDB913;stroke-width:5;stroke-linecap:round;stroke-linejoin:round;stroke-miterlimit:10;}
	.st33{fill:#EA9719;}
	.st34{fill:#004C76;}
	.st35{display:inline;fill:#FDB913;}
	.st36{display:inline;fill:#E6E7E8;}
	.st37{fill:#BEC0C2;}
	.st38{fill:#FAAB64;}
	.st39{fill:#FFDE8C;}
	.st40{fill:#004D77;}
	.st41{display:inline;fill:#4D3510;}
	.st42{display:inline;fill:#5D411C;}
	.st43{display:inline;fill:#49310C;}
	.st44{display:inline;fill:#523814;}
	.st45{display:inline;fill:#D1D3D4;}
	.st46{display:inline;fill:#FFFFFF;}
	.st47{display:inline;fill:#F7941D;}
</style>
<g id="Layer_2" class="st0">
</g>
<rect id="XMLID_20_" class="st1" width="1400" height="980"/>
<circle id="XMLID_132_" class="st2" cx="346.74" cy="311.77" r="138.68"/>
<circle id="XMLID_241_" class="st2" cx="1038.43" cy="512.62" r="138.68"/>
<g id="XMLID_91_">
	<g id="XMLID_87_">
		<path id="XMLID_86_" class="st3" d="M344.81,289.62L344.81,289.62c-2.04-1.07-2.82-3.58-1.76-5.62l13.77-26.29l7.38,3.86
			l-13.77,26.29C349.36,289.9,346.84,290.68,344.81,289.62z"/>
		<path id="XMLID_88_" class="st3" d="M477.45,289.62L477.45,289.62c2.04-1.07,2.82-3.58,1.76-5.62l-13.77-26.29l-7.38,3.86
			l13.77,26.29C472.9,289.9,475.41,290.68,477.45,289.62z"/>
	</g>
	<g id="XMLID_77_">
		<g id="XMLID_75_">
			<path id="XMLID_73_" class="st4" d="M330.15,69.3l-12.06,8.04c-2.22-3.33-1.32-7.83,2.01-10.05
				C323.42,65.07,327.92,65.97,330.15,69.3z"/>
			
				<rect id="XMLID_69_" x="339.54" y="90.67" transform="matrix(0.8319 -0.5549 0.5549 0.8319 -1.6703 210.971)" class="st3" width="15.74" height="35.14"/>
			<g id="XMLID_55_">
				<path id="XMLID_81_" class="st5" d="M311.34,131.82l73.14-46.78c-12.92-20.2-39.76-26.1-59.96-13.18
					C304.33,84.78,298.43,111.62,311.34,131.82z"/>
				<path id="XMLID_80_" class="st6" d="M324.52,71.86c3.52-2.25,16.83,12.3,29.75,32.5l21.14-13.52
					C362.5,70.64,339.71,62.14,324.52,71.86z"/>
			</g>
		</g>
		<g id="XMLID_89_">
			<path id="XMLID_97_" class="st4" d="M493.43,69.3l12.06,8.04c2.22-3.33,1.32-7.83-2.01-10.05
				C500.15,65.07,495.65,65.97,493.43,69.3z"/>
			
				<rect id="XMLID_95_" x="468.29" y="90.67" transform="matrix(-0.8319 -0.5549 0.5549 -0.8319 812.2277 462.5159)" class="st3" width="15.74" height="35.14"/>
			<g id="XMLID_78_">
				<path id="XMLID_85_" class="st5" d="M439.09,85.04l73.27,46.57c12.86-20.23,6.89-47.06-13.35-59.92
					C478.78,58.83,451.95,64.8,439.09,85.04z"/>
				<path id="XMLID_79_" class="st6" d="M499.01,71.69c3.52,2.24-4.05,20.45-16.91,40.69l21.18,13.46
					C516.14,105.61,514.23,81.36,499.01,71.69z"/>
			</g>
		</g>
	</g>
	
		<ellipse id="XMLID_26_" transform="matrix(0.7071 -0.7071 0.7071 0.7071 -13.164 346.3191)" class="st7" cx="411.46" cy="189.05" rx="98.15" ry="98.15"/>
	
		<ellipse id="XMLID_48_" transform="matrix(0.7071 -0.7071 0.7071 0.7071 -13.164 346.3191)" class="st8" cx="411.46" cy="189.05" rx="84.07" ry="84.07"/>
	<path id="XMLID_96_" class="st9" d="M495.53,189.05c0,2.52-0.11,5.01-0.33,7.48c-3.78,42.93-39.83,76.59-83.74,76.59
		c-2.22,0-4.41-0.09-6.59-0.26c-27.31-2.11-50.95-17.28-64.72-39.26c-2.66-4.27-4.97-8.79-6.84-13.52c-1.68-4.23-3.03-8.62-4-13.15
		c-0.74-3.39-1.27-6.86-1.58-10.39c-0.22-2.46-0.33-4.96-0.33-7.48c0-46.43,37.64-84.07,84.07-84.07c6.13,0,12.11,0.66,17.87,1.91
		c4.53,0.97,8.93,2.32,13.15,4c4.74,1.88,9.26,4.18,13.52,6.85c21.99,13.76,37.16,37.41,39.27,64.72
		C495.44,184.64,495.53,186.83,495.53,189.05z"/>
	<path id="XMLID_82_" class="st8" d="M495.2,196.53c-3.78,42.93-39.83,76.59-83.74,76.59c-43.91,0-79.96-33.66-83.74-76.59
		c3.78-42.93,39.83-76.6,83.74-76.6C455.37,119.92,491.42,153.59,495.2,196.53z"/>
	
		<ellipse id="XMLID_93_" transform="matrix(0.2305 -0.9731 0.9731 0.2305 132.6483 545.8451)" class="st3" cx="411.46" cy="189.05" rx="7.96" ry="7.96"/>
	<polyline id="XMLID_94_" class="st10" points="375.16,152.74 411.46,189.05 458.96,141.55 	"/>
	<g id="XMLID_100_">
		<line id="XMLID_101_" class="st10" x1="411.46" y1="114.45" x2="411.46" y2="124.32"/>
		<line id="XMLID_102_" class="st10" x1="411.46" y1="253.77" x2="411.46" y2="263.65"/>
		<g id="XMLID_103_">
			<line id="XMLID_105_" class="st10" x1="486.06" y1="189.05" x2="476.19" y2="189.05"/>
			<line id="XMLID_104_" class="st10" x1="346.74" y1="189.05" x2="336.86" y2="189.05"/>
		</g>
	</g>
	<g id="XMLID_72_" class="st11">
		<path id="XMLID_84_" class="st12" d="M495.27,182.46l-90.41,90.4c-27.31-2.11-50.95-17.28-64.72-39.26l115.86-115.85
			C477.99,131.5,493.16,155.15,495.27,182.46z"/>
		<path id="XMLID_83_" class="st12" d="M442.48,110.89L333.3,220.07c-1.68-4.23-3.03-8.62-4-13.15l100.03-100.03
			C433.86,107.86,438.26,109.21,442.48,110.89z"/>
	</g>
</g>
<g id="XMLID_68_">
	<path id="XMLID_63_" class="st13" d="M391.6,527.35l79.17-122.17l23.52,15.24c5.89,3.82,7.58,11.7,3.76,17.59l-72.25,111.5
		L391.6,527.35z"/>
	<path id="XMLID_62_" class="st13" d="M391.6,569.47l79.17-122.17l23.52,15.24c5.89,3.82,7.58,11.7,3.76,17.59l-72.25,111.5
		L391.6,569.47z"/>
</g>
<path id="XMLID_47_" class="st14" d="M945.02,175.37l0.01-0.01l-0.17-0.17c-0.57-0.64-1.17-1.24-1.81-1.8l-6.84-6.82l-1.93,2.28
	c-1.52-0.36-3.1-0.57-4.74-0.57H482c-11.32,0-20.49,9.17-20.49,20.49v611.48c0,1.01,0.1,2,0.24,2.97l-2.69,3.04l7.99,7.96
	c0.33,0.35,0.66,0.68,1.01,1.01l0.3,0.3l0.01-0.02c3.63,3.24,8.4,5.23,13.64,5.23h447.54c11.32,0,20.49-9.17,20.49-20.49V188.76
	C950.03,183.63,948.14,178.96,945.02,175.37z"/>
<path id="XMLID_1_" class="st15" d="M920.54,811.73H473c-11.32,0-20.49-9.17-20.49-20.49V179.76c0-11.32,9.17-20.49,20.49-20.49
	h447.54c11.32,0,20.49,9.17,20.49,20.49v611.48C941.03,802.56,931.86,811.73,920.54,811.73z"/>
<path id="XMLID_2_" class="st5" d="M829.02,229.38H564.52c-4.37,0-7.92-3.55-7.92-7.92v-41.54c0-4.37,3.55-7.92,7.92-7.92h264.49
	c4.37,0,7.92,3.54,7.92,7.92v41.54C836.93,225.83,833.39,229.38,829.02,229.38z"/>
<rect id="XMLID_21_" x="519.02" y="217.12" class="st16" width="370.48" height="497.08"/>
<rect id="XMLID_13_" x="506.71" y="204.81" class="st6" width="370.48" height="497.08"/>
<path id="XMLID_5_" class="st17" d="M812.44,185.35h7c4.97,0,9,4.03,9,9v16c0,4.97-4.03,9-9,9H727.4c-5.42,0-10.72-1.53-15.31-4.4h0
	c-9.37-5.87-21.26-5.87-30.63,0l0,0c-4.59,2.88-9.9,4.4-15.31,4.4H574.1c-4.97,0-9-4.03-9-9v-16c0-4.97,4.03-9,9-9h7"/>
<g id="XMLID_7_">
	<g id="XMLID_6_">
		<path id="XMLID_3_" class="st18" d="M601.6,226.35h-23.33c-1.66,0-3-1.34-3-3v-8c0-1.66,1.34-3,3-3h23.33c1.66,0,3,1.34,3,3v8
			C604.6,225,603.26,226.35,601.6,226.35z"/>
		<path id="XMLID_4_" class="st19" d="M601.6,221.01h-23.33c-1.66,0-3-1.34-3-3v-2.67c0-1.66,1.34-3,3-3h23.33c1.66,0,3,1.34,3,3
			v2.67C604.6,219.67,603.26,221.01,601.6,221.01z"/>
	</g>
	<g id="XMLID_8_">
		<path id="XMLID_10_" class="st18" d="M815.27,226.35h-23.33c-1.66,0-3-1.34-3-3v-8c0-1.66,1.34-3,3-3h23.33c1.66,0,3,1.34,3,3v8
			C818.27,225,816.93,226.35,815.27,226.35z"/>
		<path id="XMLID_9_" class="st19" d="M815.27,221.01h-23.33c-1.66,0-3-1.34-3-3v-2.67c0-1.66,1.34-3,3-3h23.33c1.66,0,3,1.34,3,3
			v2.67C818.27,219.67,816.93,221.01,815.27,221.01z"/>
	</g>
</g>
<g id="XMLID_19_">
	<g id="XMLID_15_">
		<path id="XMLID_12_" class="st20" d="M626.52,200.69c0,3.54-2.87,6.41-6.41,6.41s-6.41-2.87-6.41-6.41c0-3.54,2.87-6.41,6.41-6.41
			S626.52,197.15,626.52,200.69z"/>
		<path id="XMLID_14_" class="st18" d="M624.22,200.69c0,2.27-1.84,4.12-4.12,4.12c-2.27,0-4.12-1.84-4.12-4.12
			c0-2.27,1.84-4.12,4.12-4.12C622.38,196.57,624.22,198.42,624.22,200.69z"/>
	</g>
	<g id="XMLID_16_">
		<path id="XMLID_18_" class="st20" d="M779.85,200.69c0,3.54-2.87,6.41-6.41,6.41c-3.54,0-6.41-2.87-6.41-6.41
			c0-3.54,2.87-6.41,6.41-6.41C776.98,194.28,779.85,197.15,779.85,200.69z"/>
		<path id="XMLID_17_" class="st18" d="M777.55,200.69c0,2.27-1.84,4.12-4.12,4.12c-2.27,0-4.12-1.84-4.12-4.12
			c0-2.27,1.84-4.12,4.12-4.12C775.71,196.57,777.55,198.42,777.55,200.69z"/>
	</g>
</g>
<path id="XMLID_11_" class="st20" d="M808.72,192.6H584.97c-2.14,0-3.88-1.73-3.88-3.88v-6.75c0-2.14,1.73-3.88,3.88-3.88h223.75
	c2.14,0,3.88,1.73,3.88,3.88v6.75C812.6,190.86,810.86,192.6,808.72,192.6z"/>
<g id="XMLID_25_">
	<path id="XMLID_30_" d="M581.56,309.87l11.15-17.51h-2.14h-4.74h-2.14l-6.59,10.43c-0.73-1.03-1.37-1.91-1.93-2.71l-5.07-7.71
		h-0.07c-3.96-6.4-6.95-11.23-11.74-14.4c5.86-2.3,9.03-7.05,9.03-13.31c0-5.47-2.69-10.86-8.48-13.31
		c-3.41-1.51-6.73-1.74-9.27-1.74h-13.55v54.04h7.69V280.1h2.06c3.72,0,6.34,0,11.65,6.81c1.74,2.3,9.27,14.1,11.09,16.72h0.03
		l4.06,6.24l-11.39,18.07h2.14h4.62h2.14l6.98-11.11l7.4,11.11h2.14h4.74h2.14L581.56,309.87z M554.26,272.41
		c-2.14,0.79-6.34,0.79-7.53,0.79h-3.01v-17.04h2.38c4.67,0,7.21,0.32,9.19,1.27c2.54,1.19,4.12,4.12,4.12,7.21
		C559.41,267.58,557.9,270.99,554.26,272.41z"/>
</g>
<rect id="XMLID_23_" x="626.52" y="262.74" width="218" height="3.89"/>
<rect id="XMLID_27_" x="626.52" y="286.82" width="218" height="3.89"/>
<rect id="XMLID_28_" x="626.52" y="310.89" width="218" height="3.89"/>
<rect id="XMLID_34_" x="536.03" y="414.73" width="145.57" height="3.89"/>
<path id="XMLID_46_" d="M844.01,668.73h-68.89c-1.07,0-1.95-0.87-1.95-1.95l0,0c0-1.07,0.87-1.95,1.95-1.95h68.89
	c1.07,0,1.95,0.87,1.95,1.95l0,0C845.95,667.85,845.08,668.73,844.01,668.73z"/>
<rect id="XMLID_39_" x="774.6" y="414.73" width="69.92" height="3.89"/>
<rect id="XMLID_45_" x="774.6" y="603.87" width="69.92" height="3.89"/>
<rect id="XMLID_40_" x="774.6" y="436.17" width="69.92" height="3.89"/>
<rect id="XMLID_41_" x="774.6" y="457.61" width="69.92" height="3.89"/>
<rect id="XMLID_42_" x="774.6" y="479.05" width="69.92" height="3.89"/>
<rect id="XMLID_43_" x="774.6" y="500.5" width="69.92" height="3.89"/>
<rect id="XMLID_35_" x="536.03" y="436.17" width="145.57" height="3.89"/>
<rect id="XMLID_36_" x="536.03" y="457.61" width="145.57" height="3.89"/>
<rect id="XMLID_37_" x="536.03" y="479.05" width="145.57" height="3.89"/>
<rect id="XMLID_38_" x="536.03" y="500.5" width="145.57" height="3.89"/>
<rect id="XMLID_32_" x="536.03" y="365.82" width="308.48" height="3.89"/>
<rect id="XMLID_33_" x="536.03" y="388.17" width="308.48" height="3.89"/>
<rect id="XMLID_44_" x="536.03" y="584.84" width="308.48" height="3.89"/>
<g id="XMLID_57_">
	<path id="XMLID_31_" class="st13" d="M910.82,634l37.79,60.59l-19.27,52.44h0c16.25,5.97,34-0.24,43.25-14l18.96,30.39l67.62-42.18
		l-80.73-129.42L910.82,634z"/>
	<path id="XMLID_51_" class="st21" d="M973.53,628.09l0-0.01l-55.47-3.27l-16.41-0.96l-0.01-0.01l-0.01,0
		c-12.98-6.43-20.11-22.18-16.63-37.84c0.37-1.62,0.84-2.85,1.45-3.6l102.23,3.05l61.21,47.16L973.53,628.09z"/>
	<g id="XMLID_92_">
		<path id="XMLID_71_" class="st22" d="M1169.78,639.67c3.79,0.22,6.68,3.48,6.46,7.27l0,0l-0.78,13.26l-0.03,0.45
			c-0.22,3.79-3.48,6.68-7.27,6.46l-0.45-0.03l-15.1-0.89l-71.63-4.23l-71.56-4.22l-50.7-2.99l-10.6-0.63L895.07,651l-2.66-0.16
			l-21.61-1.28l-26.74-1.58l-41.29-12.03l0.05-0.94l0.39-6.46l0.05-0.94l42.42-7.07l55.95,3.3l0.01,0l0.01,0.01l16.41,0.96
			l55.47,3.28l76.37,4.51l104.33,6.16l15.1,0.89L1169.78,639.67z"/>
		<path id="XMLID_151_" class="st23" d="M803.21,628.55l-0.38,6.47l-8.96-2.61c-1.22-0.35-1.12-2.12,0.14-2.33L803.21,628.55z"/>
		<polygon id="XMLID_98_" class="st24" points="845.69,620.53 844.07,647.98 802.77,635.96 803.27,627.61 		"/>
		<path id="XMLID_56_" class="st7" d="M973.54,628.07l0,0.01l-0.04,0.58l-1.59,26.85l-13.18-0.76l-10.59-0.62l-0.02-0.03
			c-14.23-18.37-40.27-23.35-60.39-10.79l4.69,7.52l-21.6-1.27l-0.01-0.01l1.64-27.43l29.22,1.72l16.41,0.96L973.54,628.07z"/>
		<path id="XMLID_99_" class="st7" d="M1203.13,661.84l-27.68-1.63l0.78-13.27l27.68,1.63c3.66,0.22,6.46,3.36,6.24,7.02l0,0
			C1209.94,659.26,1206.8,662.06,1203.13,661.84z"/>
		<path id="XMLID_147_" class="st7" d="M1154.83,628.69l-110.25-6.51c-0.16,2.78,1.96,5.17,4.73,5.33l105.21,6.21l-1.92,32.48
			l15.1,0.89l1.92-32.48l0,0c0.16-2.78-1.96-5.17-4.73-5.33L1154.83,628.69z"/>
	</g>
	<polygon id="XMLID_60_" class="st25" points="895.07,651 948.12,654.11 948.13,654.13 	"/>
	<path id="XMLID_50_" class="st21" d="M948.12,654.11c-14.23-18.37-40.27-23.35-60.39-10.79l4.69,7.52l74.69,119.74l0.21-0.13
		c26.24,41.52,68.76,109.05,68.02,109.52l66.87-41.71l-2.92-121.09c-0.48-19.99-6.96-39.17-18.31-55.2l-71.56-4.22l0.68,0.56
		c14.07,11.63,14.16,30.8-0.65,41.45c-6.38,4.58-14.04,5.88-21.01,4.24c-6.46-1.47-12.34-5.44-16.12-11.5l-21.56-34.57
		c-0.83-1.32-1.7-2.62-2.63-3.79l-0.01-0.01L948.12,654.11z"/>
	<g id="XMLID_58_">
		
			<rect id="XMLID_65_" x="1037.72" y="770.62" transform="matrix(0.5292 0.8485 -0.8485 0.5292 1215.089 -507.6802)" class="st7" width="54.66" height="141.09"/>
		
			<rect id="XMLID_49_" x="1007.8" y="824.56" transform="matrix(0.5292 0.8485 -0.8485 0.5292 1216.8394 -473.4984)" class="st26" width="54.66" height="70.55"/>
		
			<ellipse id="XMLID_90_" transform="matrix(0.2257 -0.9742 0.9742 0.2257 -32.3441 1676.3558)" class="st27" cx="1038.43" cy="858.53" rx="13.98" ry="13.98"/>
	</g>
</g>
<polygon id="XMLID_76_" class="st28" points="1256.79,980 1042.86,980 1001.76,912.86 1019.66,901.69 1079.52,864.36 1156.57,816.3 
	"/>
<polygon id="XMLID_74_" class="st27" points="1150.31,980 1042.86,980 1001.76,912.86 1019.66,901.69 1079.52,864.36 "/>
<g id="XMLID_64_">
	<g id="XMLID_52_">
		<g id="XMLID_53_">
			
				<rect id="XMLID_61_" x="407.53" y="687" transform="matrix(6.123234e-17 -1 1 6.123234e-17 -323.0731 1193.2637)" class="st7" width="55.14" height="142.33"/>
			<circle id="XMLID_59_" class="st28" cx="403.04" cy="757.53" r="14.1"/>
			<path id="XMLID_70_" class="st21" d="M484.58,532.69c-0.88,3.54-1.35,7.24-1.35,11.06v29.69c0,15.29-12.52,27.64-27.87,27.37
				c-15.07-0.28-26.84-13.21-26.84-28.25v-29.58c0-23.41,6.77-46.3,19.49-65.93l4.51-6.97v-81.91l-50.28,77.6
				c-10.53,16.25-16.14,35.25-16.14,54.65V730.6h98.39c27.62-59.88,44.62-100.29,44.62-134.82v-63.08v-34.8
				C507.58,497.89,489.52,512.71,484.58,532.69z"/>
		</g>
	</g>
</g>
<rect id="XMLID_67_" x="343.45" y="785.74" class="st28" width="182.46" height="194.26"/>
<rect id="XMLID_66_" x="343.45" y="785.74" class="st27" width="91.64" height="194.26"/>
<g id="XMLID_107_" class="st0">
	<g id="XMLID_106_" class="st29">
		<path id="XMLID_116_" class="st30" d="M252.81,313.04c0,21.41-17.36,38.77-38.77,38.77c-5.87,0-11.43-1.3-16.42-3.64
			c-13.21-6.18-22.36-19.59-22.36-35.13c0-21.42,17.36-38.77,38.77-38.77c11.28,0,21.43,4.82,28.52,12.51
			C248.93,293.68,252.81,302.91,252.81,313.04z"/>
		<path id="XMLID_114_" class="st31" d="M252.81,313.04c0,21.41-17.36,38.77-38.77,38.77c-5.87,0-11.43-1.3-16.42-3.64
			c-6.37-6.9-10.25-16.13-10.25-26.26c0-21.42,17.36-38.77,38.77-38.77c5.87,0,11.43,1.3,16.42,3.64
			C248.93,293.68,252.81,302.91,252.81,313.04z"/>
	</g>
	<line id="XMLID_108_" class="st32" x1="214.04" y1="264.09" x2="214.04" y2="245.99"/>
	<line id="XMLID_109_" class="st32" x1="214.04" y1="381.04" x2="214.04" y2="362.93"/>
	<line id="XMLID_111_" class="st32" x1="195.13" y1="267.85" x2="188.2" y2="251.13"/>
	<line id="XMLID_110_" class="st32" x1="239.88" y1="375.9" x2="232.95" y2="359.17"/>
	<line id="XMLID_113_" class="st32" x1="179.09" y1="278.57" x2="166.29" y2="265.76"/>
	<line id="XMLID_112_" class="st32" x1="261.79" y1="361.26" x2="248.99" y2="348.46"/>
	<line id="XMLID_117_" class="st32" x1="168.38" y1="294.6" x2="151.65" y2="287.67"/>
	<line id="XMLID_115_" class="st32" x1="276.43" y1="339.35" x2="259.7" y2="332.43"/>
	<line id="XMLID_119_" class="st32" x1="164.62" y1="313.51" x2="146.51" y2="313.51"/>
	<line id="XMLID_118_" class="st32" x1="281.57" y1="313.51" x2="263.46" y2="313.51"/>
	<line id="XMLID_121_" class="st32" x1="168.38" y1="332.43" x2="151.65" y2="339.35"/>
	<line id="XMLID_120_" class="st32" x1="276.43" y1="287.67" x2="259.7" y2="294.6"/>
	<line id="XMLID_123_" class="st32" x1="179.09" y1="348.46" x2="166.29" y2="361.26"/>
	<line id="XMLID_122_" class="st32" x1="261.79" y1="265.76" x2="248.99" y2="278.57"/>
	<line id="XMLID_125_" class="st32" x1="195.13" y1="359.17" x2="188.2" y2="375.9"/>
	<line id="XMLID_124_" class="st32" x1="239.88" y1="251.13" x2="232.95" y2="267.85"/>
</g>
<g id="XMLID_128_" class="st0">
	<g id="XMLID_127_" class="st29">
		<g id="XMLID_144_">
			<path id="XMLID_136_" class="st33" d="M396.53,481.52c-5.71,2.38-11.99,3.69-18.56,3.69c-7.32,0-14.27-1.62-20.49-4.54
				c-16.5-7.71-27.92-24.46-27.92-43.86c0-2.24,0.15-4.45,0.45-6.62c2.26,16.54,12.88,30.43,27.47,37.24
				c6.22,2.92,13.17,4.54,20.49,4.54c1.24,0,2.47-0.05,3.69-0.14c3.78,3.61,8.13,6.6,12.91,8.84
				C395.22,480.97,395.87,481.26,396.53,481.52z"/>
			<path id="XMLID_138_" class="st30" d="M366.66,436.8c0,13.78,5.76,26.22,15,35.03c-1.21,0.09-2.45,0.14-3.69,0.14
				c-7.32,0-14.27-1.62-20.49-4.54c-14.59-6.82-25.21-20.71-27.47-37.24c3.22-23.6,23.46-41.79,47.96-41.79
				c1.24,0,2.47,0.05,3.68,0.14c5.23,0.39,10.24,1.62,14.88,3.54c-15.59,6.46-27.06,20.82-29.42,38.09
				C366.81,432.33,366.66,434.55,366.66,436.8z"/>
			<path id="XMLID_135_" class="st34" d="M426.39,436.8c0,20.16-12.32,37.45-29.86,44.72c-0.66-0.26-1.32-0.55-1.96-0.86
				c-4.78-2.24-9.14-5.23-12.91-8.84c5.23-0.4,10.24-1.62,14.87-3.55c15.58-6.46,27.04-20.82,29.4-38.09
				C426.24,432.35,426.39,434.55,426.39,436.8z"/>
			<path id="XMLID_140_" class="st7" d="M425.94,430.19c-2.36,17.26-13.83,31.63-29.4,38.09c-4.63,1.93-9.64,3.15-14.87,3.55
				c-9.25-8.81-15-21.25-15-35.03c0-2.25,0.15-4.47,0.45-6.63c2.36-17.27,13.83-31.63,29.42-38.09c6.52,2.72,12.34,6.82,17.05,11.93
				C420.12,411.11,424.57,420.16,425.94,430.19z"/>
		</g>
	</g>
	<polygon id="XMLID_126_" class="st35" points="399.46,415.41 403.28,423.14 411.82,424.38 405.64,430.41 407.1,438.91 
		399.46,434.9 391.82,438.91 393.28,430.41 387.1,424.38 395.64,423.14 	"/>
	<polygon id="XMLID_129_" class="st35" points="427.84,462.73 425.95,466.56 421.73,467.17 424.79,470.15 424.06,474.35 
		427.84,472.37 431.62,474.35 430.89,470.15 433.95,467.17 429.73,466.56 	"/>
	<polygon id="XMLID_131_" class="st35" points="348.59,375.04 350.48,378.86 354.7,379.47 351.64,382.45 352.36,386.66 
		348.59,384.67 344.81,386.66 345.53,382.45 342.48,379.47 346.7,378.86 	"/>
	<polygon id="XMLID_130_" class="st35" points="412.5,478.55 409.64,484.33 403.26,485.26 407.88,489.76 406.79,496.11 
		412.5,493.11 418.2,496.11 417.11,489.76 421.73,485.26 415.35,484.33 	"/>
</g>
<g id="XMLID_183_" class="st0">
	<path id="XMLID_182_" class="st36" d="M1021.49,488.72h-45.66c-5.76,0-10.43-4.67-10.43-10.43V316.43
		c0-5.76,4.67-10.43,10.43-10.43h45.66c5.76,0,10.43,4.67,10.43,10.43v161.86C1031.91,484.05,1027.25,488.72,1021.49,488.72z"/>
	<g id="XMLID_181_" class="st29">
		<path id="XMLID_223_" class="st37" d="M982.93,317.93c-5.46,0-9.97,4.04-10.72,9.29c-0.07,0.5-0.11,1.02-0.11,1.54v4.1
			c0,0.52,0.04,1.04,0.11,1.54c0.75,5.25,5.26,9.28,10.72,9.28c5.46,0,9.97-4.04,10.72-9.28c0.07-0.5,0.11-1.02,0.11-1.54v-4.1
			c0-0.52-0.04-1.04-0.11-1.54C992.9,321.96,988.39,317.93,982.93,317.93z"/>
		<path id="XMLID_224_" class="st37" d="M1025.1,327.21c-0.75-5.25-5.26-9.29-10.72-9.29c-5.46,0-9.97,4.04-10.72,9.29
			c-0.07,0.5-0.11,1.02-0.11,1.54v4.1c0,0.52,0.04,1.04,0.11,1.54c0.75,5.25,5.26,9.28,10.72,9.28c5.46,0,9.97-4.04,10.72-9.28
			c0.07-0.5,0.11-1.02,0.11-1.54v-4.1C1025.21,328.23,1025.17,327.72,1025.1,327.21z"/>
		<path id="XMLID_225_" class="st37" d="M982.93,352.74c-5.46,0-9.97,4.04-10.72,9.29c-0.07,0.5-0.11,1.02-0.11,1.54v4.1
			c0,0.52,0.04,1.04,0.11,1.54c0.75,5.25,5.26,9.28,10.72,9.28c5.46,0,9.97-4.04,10.72-9.28c0.07-0.5,0.11-1.02,0.11-1.54v-4.1
			c0-0.52-0.04-1.04-0.11-1.54C992.9,356.77,988.39,352.74,982.93,352.74z"/>
		<path id="XMLID_226_" class="st37" d="M1014.39,352.74c-5.46,0-9.97,4.04-10.72,9.29c-0.07,0.5-0.11,1.02-0.11,1.54v4.1
			c0,0.52,0.04,1.04,0.11,1.54c0.75,5.25,5.26,9.28,10.72,9.28c5.46,0,9.97-4.04,10.72-9.28c0.07-0.5,0.11-1.02,0.11-1.54v-4.1
			c0-0.52-0.04-1.04-0.11-1.54C1024.35,356.77,1019.84,352.74,1014.39,352.74z"/>
		<path id="XMLID_227_" class="st37" d="M982.93,387.55c-5.46,0-9.97,4.04-10.72,9.29c-0.07,0.5-0.11,1.02-0.11,1.54v4.1
			c0,0.52,0.04,1.04,0.11,1.54c0.75,5.25,5.26,9.28,10.72,9.28c5.46,0,9.97-4.04,10.72-9.28c0.07-0.5,0.11-1.02,0.11-1.54v-4.1
			c0-0.52-0.04-1.04-0.11-1.54C992.9,391.59,988.39,387.55,982.93,387.55z"/>
		<path id="XMLID_228_" class="st37" d="M1014.39,387.55c-5.46,0-9.97,4.04-10.72,9.29c-0.07,0.5-0.11,1.02-0.11,1.54v4.1
			c0,0.52,0.04,1.04,0.11,1.54c0.75,5.25,5.26,9.28,10.72,9.28c5.46,0,9.97-4.04,10.72-9.28c0.07-0.5,0.11-1.02,0.11-1.54v-4.1
			c0-0.52-0.04-1.04-0.11-1.54C1024.35,391.59,1019.84,387.55,1014.39,387.55z"/>
		<path id="XMLID_229_" class="st37" d="M982.93,422.36c-5.46,0-9.97,4.04-10.72,9.29c-0.07,0.5-0.11,1.02-0.11,1.54v4.1
			c0,0.52,0.04,1.04,0.11,1.54c0.75,5.25,5.26,9.28,10.72,9.28c5.46,0,9.97-4.04,10.72-9.28c0.07-0.5,0.11-1.02,0.11-1.54v-4.1
			c0-0.52-0.04-1.04-0.11-1.54C992.9,426.4,988.39,422.36,982.93,422.36z"/>
		<path id="XMLID_230_" class="st37" d="M1014.39,422.36c-5.46,0-9.97,4.04-10.72,9.29c-0.07,0.5-0.11,1.02-0.11,1.54v4.1
			c0,0.52,0.04,1.04,0.11,1.54c0.75,5.25,5.26,9.28,10.72,9.28c5.46,0,9.97-4.04,10.72-9.28c0.07-0.5,0.11-1.02,0.11-1.54v-4.1
			c0-0.52-0.04-1.04-0.11-1.54C1024.35,426.4,1019.84,422.36,1014.39,422.36z"/>
		<path id="XMLID_231_" class="st37" d="M982.93,457.18c-5.46,0-9.97,4.04-10.72,9.29c-0.07,0.5-0.11,1.02-0.11,1.54v4.1
			c0,0.52,0.04,1.04,0.11,1.54c0.75,5.25,5.26,9.28,10.72,9.28c5.46,0,9.97-4.04,10.72-9.28c0.07-0.5,0.11-1.02,0.11-1.54V468
			c0-0.52-0.04-1.04-0.11-1.54C992.9,461.21,988.39,457.18,982.93,457.18z"/>
		<path id="XMLID_232_" class="st37" d="M1014.39,457.18c-5.46,0-9.97,4.04-10.72,9.29c-0.07,0.5-0.11,1.02-0.11,1.54v4.1
			c0,0.52,0.04,1.04,0.11,1.54c0.75,5.25,5.26,9.28,10.72,9.28c5.46,0,9.97-4.04,10.72-9.28c0.07-0.5,0.11-1.02,0.11-1.54V468
			c0-0.52-0.04-1.04-0.11-1.54C1024.35,461.21,1019.84,457.18,1014.39,457.18z"/>
	</g>
	<g id="XMLID_134_" class="st29">
		<g id="XMLID_133_">
			<path id="XMLID_141_" class="st38" d="M992.95,325.69c-1.62-3.94-5.49-6.72-10.01-6.72c-4.53,0-8.39,2.78-10.01,6.72h-0.81v4.1
				c0,0.52,0.04,1.04,0.11,1.54c0.75,5.25,5.26,9.28,10.72,9.28c5.46,0,9.97-4.04,10.72-9.28c0.07-0.5,0.11-1.02,0.11-1.54v-4.1
				H992.95z"/>
			<path id="XMLID_152_" class="st39" d="M993.76,325.69c0,0.52-0.04,1.04-0.11,1.54c-0.75,5.25-5.26,9.28-10.72,9.28
				c-5.46,0-9.97-4.04-10.72-9.28c-0.07-0.5-0.11-1.02-0.11-1.54c0-0.52,0.04-1.04,0.11-1.54c0.75-5.25,5.26-9.29,10.72-9.29
				c5.46,0,9.97,4.04,10.72,9.29C993.72,324.65,993.76,325.16,993.76,325.69z"/>
			<path id="XMLID_143_" class="st38" d="M993.76,325.69c0,0.52-0.04,1.04-0.11,1.54h-21.44c-0.07-0.5-0.11-1.02-0.11-1.54
				c0-0.52,0.04-1.04,0.11-1.54h21.44C993.72,324.65,993.76,325.16,993.76,325.69z"/>
		</g>
		<g id="XMLID_137_">
			<path id="XMLID_145_" class="st38" d="M1024.4,325.69c-1.62-3.94-5.49-6.72-10.01-6.72s-8.39,2.78-10.01,6.72h-0.81v4.1
				c0,0.52,0.04,1.04,0.11,1.54c0.75,5.25,5.26,9.28,10.72,9.28s9.97-4.04,10.72-9.28c0.07-0.5,0.11-1.02,0.11-1.54v-4.1H1024.4z"/>
			<path id="XMLID_142_" class="st39" d="M1025.21,325.69c0,0.52-0.04,1.04-0.11,1.54c-0.75,5.25-5.26,9.28-10.72,9.28
				s-9.97-4.04-10.72-9.28c-0.07-0.5-0.11-1.02-0.11-1.54c0-0.52,0.04-1.04,0.11-1.54c0.75-5.25,5.26-9.29,10.72-9.29
				s9.97,4.04,10.72,9.29C1025.17,324.65,1025.21,325.16,1025.21,325.69z"/>
			<path id="XMLID_139_" class="st38" d="M1025.21,325.69c0,0.52-0.04,1.04-0.11,1.54h-21.44c-0.07-0.5-0.11-1.02-0.11-1.54
				c0-0.52,0.04-1.04,0.11-1.54h21.44C1025.17,324.65,1025.21,325.16,1025.21,325.69z"/>
		</g>
		<g id="XMLID_153_">
			<path id="XMLID_156_" class="st38" d="M992.95,360.5c-1.62-3.94-5.49-6.72-10.01-6.72c-4.53,0-8.39,2.78-10.01,6.72h-0.81v4.1
				c0,0.52,0.04,1.04,0.11,1.54c0.75,5.25,5.26,9.28,10.72,9.28c5.46,0,9.97-4.04,10.72-9.28c0.07-0.5,0.11-1.02,0.11-1.54v-4.1
				H992.95z"/>
			<path id="XMLID_155_" class="st39" d="M993.76,360.5c0,0.52-0.04,1.04-0.11,1.54c-0.75,5.25-5.26,9.28-10.72,9.28
				c-5.46,0-9.97-4.04-10.72-9.28c-0.07-0.5-0.11-1.02-0.11-1.54c0-0.52,0.04-1.04,0.11-1.54c0.75-5.25,5.26-9.29,10.72-9.29
				c5.46,0,9.97,4.04,10.72,9.29C993.72,359.46,993.76,359.98,993.76,360.5z"/>
			<path id="XMLID_154_" class="st38" d="M993.76,360.5c0,0.52-0.04,1.04-0.11,1.54h-21.44c-0.07-0.5-0.11-1.02-0.11-1.54
				c0-0.52,0.04-1.04,0.11-1.54h21.44C993.72,359.46,993.76,359.98,993.76,360.5z"/>
		</g>
		<g id="XMLID_146_">
			<path id="XMLID_150_" class="st38" d="M1024.4,360.5c-1.62-3.94-5.49-6.72-10.01-6.72s-8.39,2.78-10.01,6.72h-0.81v4.1
				c0,0.52,0.04,1.04,0.11,1.54c0.75,5.25,5.26,9.28,10.72,9.28s9.97-4.04,10.72-9.28c0.07-0.5,0.11-1.02,0.11-1.54v-4.1H1024.4z"/>
			<path id="XMLID_149_" class="st39" d="M1025.21,360.5c0,0.52-0.04,1.04-0.11,1.54c-0.75,5.25-5.26,9.28-10.72,9.28
				s-9.97-4.04-10.72-9.28c-0.07-0.5-0.11-1.02-0.11-1.54c0-0.52,0.04-1.04,0.11-1.54c0.75-5.25,5.26-9.29,10.72-9.29
				s9.97,4.04,10.72,9.29C1025.17,359.46,1025.21,359.98,1025.21,360.5z"/>
			<path id="XMLID_148_" class="st38" d="M1025.21,360.5c0,0.52-0.04,1.04-0.11,1.54h-21.44c-0.07-0.5-0.11-1.02-0.11-1.54
				c0-0.52,0.04-1.04,0.11-1.54h21.44C1025.17,359.46,1025.21,359.98,1025.21,360.5z"/>
		</g>
		<g id="XMLID_161_">
			<path id="XMLID_164_" class="st38" d="M992.95,395.31c-1.62-3.94-5.49-6.72-10.01-6.72c-4.53,0-8.39,2.78-10.01,6.72h-0.81v4.1
				c0,0.52,0.04,1.04,0.11,1.54c0.75,5.25,5.26,9.28,10.72,9.28c5.46,0,9.97-4.04,10.72-9.28c0.07-0.5,0.11-1.02,0.11-1.54v-4.1
				H992.95z"/>
			<path id="XMLID_163_" class="st39" d="M993.76,395.31c0,0.52-0.04,1.04-0.11,1.54c-0.75,5.25-5.26,9.28-10.72,9.28
				c-5.46,0-9.97-4.04-10.72-9.28c-0.07-0.5-0.11-1.02-0.11-1.54c0-0.52,0.04-1.04,0.11-1.54c0.75-5.25,5.26-9.29,10.72-9.29
				c5.46,0,9.97,4.04,10.72,9.29C993.72,394.28,993.76,394.79,993.76,395.31z"/>
			<path id="XMLID_162_" class="st38" d="M993.76,395.31c0,0.52-0.04,1.04-0.11,1.54h-21.44c-0.07-0.5-0.11-1.02-0.11-1.54
				c0-0.52,0.04-1.04,0.11-1.54h21.44C993.72,394.28,993.76,394.79,993.76,395.31z"/>
		</g>
		<g id="XMLID_157_">
			<path id="XMLID_160_" class="st38" d="M1024.4,395.31c-1.62-3.94-5.49-6.72-10.01-6.72s-8.39,2.78-10.01,6.72h-0.81v4.1
				c0,0.52,0.04,1.04,0.11,1.54c0.75,5.25,5.26,9.28,10.72,9.28s9.97-4.04,10.72-9.28c0.07-0.5,0.11-1.02,0.11-1.54v-4.1H1024.4z"/>
			<path id="XMLID_159_" class="st39" d="M1025.21,395.31c0,0.52-0.04,1.04-0.11,1.54c-0.75,5.25-5.26,9.28-10.72,9.28
				s-9.97-4.04-10.72-9.28c-0.07-0.5-0.11-1.02-0.11-1.54c0-0.52,0.04-1.04,0.11-1.54c0.75-5.25,5.26-9.29,10.72-9.29
				s9.97,4.04,10.72,9.29C1025.17,394.28,1025.21,394.79,1025.21,395.31z"/>
			<path id="XMLID_158_" class="st38" d="M1025.21,395.31c0,0.52-0.04,1.04-0.11,1.54h-21.44c-0.07-0.5-0.11-1.02-0.11-1.54
				c0-0.52,0.04-1.04,0.11-1.54h21.44C1025.17,394.28,1025.21,394.79,1025.21,395.31z"/>
		</g>
		<g id="XMLID_169_">
			<path id="XMLID_172_" class="st38" d="M992.95,430.13c-1.62-3.94-5.49-6.72-10.01-6.72c-4.53,0-8.39,2.78-10.01,6.72h-0.81v4.1
				c0,0.52,0.04,1.04,0.11,1.54c0.75,5.25,5.26,9.28,10.72,9.28c5.46,0,9.97-4.04,10.72-9.28c0.07-0.5,0.11-1.02,0.11-1.54v-4.1
				H992.95z"/>
			<path id="XMLID_171_" class="st39" d="M993.76,430.13c0,0.52-0.04,1.04-0.11,1.54c-0.75,5.25-5.26,9.28-10.72,9.28
				c-5.46,0-9.97-4.04-10.72-9.28c-0.07-0.5-0.11-1.02-0.11-1.54c0-0.52,0.04-1.04,0.11-1.54c0.75-5.25,5.26-9.29,10.72-9.29
				c5.46,0,9.97,4.04,10.72,9.29C993.72,429.09,993.76,429.6,993.76,430.13z"/>
			<path id="XMLID_170_" class="st38" d="M993.76,430.13c0,0.52-0.04,1.04-0.11,1.54h-21.44c-0.07-0.5-0.11-1.02-0.11-1.54
				c0-0.52,0.04-1.04,0.11-1.54h21.44C993.72,429.09,993.76,429.6,993.76,430.13z"/>
		</g>
		<g id="XMLID_165_">
			<path id="XMLID_168_" class="st38" d="M1024.4,430.13c-1.62-3.94-5.49-6.72-10.01-6.72s-8.39,2.78-10.01,6.72h-0.81v4.1
				c0,0.52,0.04,1.04,0.11,1.54c0.75,5.25,5.26,9.28,10.72,9.28s9.97-4.04,10.72-9.28c0.07-0.5,0.11-1.02,0.11-1.54v-4.1H1024.4z"/>
			<path id="XMLID_167_" class="st39" d="M1025.21,430.13c0,0.52-0.04,1.04-0.11,1.54c-0.75,5.25-5.26,9.28-10.72,9.28
				s-9.97-4.04-10.72-9.28c-0.07-0.5-0.11-1.02-0.11-1.54c0-0.52,0.04-1.04,0.11-1.54c0.75-5.25,5.26-9.29,10.72-9.29
				s9.97,4.04,10.72,9.29C1025.17,429.09,1025.21,429.6,1025.21,430.13z"/>
			<path id="XMLID_166_" class="st38" d="M1025.21,430.13c0,0.52-0.04,1.04-0.11,1.54h-21.44c-0.07-0.5-0.11-1.02-0.11-1.54
				c0-0.52,0.04-1.04,0.11-1.54h21.44C1025.17,429.09,1025.21,429.6,1025.21,430.13z"/>
		</g>
		<g id="XMLID_177_">
			<path id="XMLID_180_" class="st38" d="M992.95,464.94c-1.62-3.94-5.49-6.72-10.01-6.72c-4.53,0-8.39,2.78-10.01,6.72h-0.81v4.1
				c0,0.52,0.04,1.04,0.11,1.54c0.75,5.25,5.26,9.28,10.72,9.28c5.46,0,9.97-4.04,10.72-9.28c0.07-0.5,0.11-1.02,0.11-1.54v-4.1
				H992.95z"/>
			<path id="XMLID_179_" class="st39" d="M993.76,464.94c0,0.52-0.04,1.04-0.11,1.54c-0.75,5.25-5.26,9.28-10.72,9.28
				c-5.46,0-9.97-4.04-10.72-9.28c-0.07-0.5-0.11-1.02-0.11-1.54c0-0.52,0.04-1.04,0.11-1.54c0.75-5.25,5.26-9.29,10.72-9.29
				c5.46,0,9.97,4.04,10.72,9.29C993.72,463.9,993.76,464.41,993.76,464.94z"/>
			<path id="XMLID_178_" class="st38" d="M993.76,464.94c0,0.52-0.04,1.04-0.11,1.54h-21.44c-0.07-0.5-0.11-1.02-0.11-1.54
				c0-0.52,0.04-1.04,0.11-1.54h21.44C993.72,463.9,993.76,464.41,993.76,464.94z"/>
		</g>
		<g id="XMLID_173_">
			<path id="XMLID_176_" class="st38" d="M1024.4,464.94c-1.62-3.94-5.49-6.72-10.01-6.72s-8.39,2.78-10.01,6.72h-0.81v4.1
				c0,0.52,0.04,1.04,0.11,1.54c0.75,5.25,5.26,9.28,10.72,9.28s9.97-4.04,10.72-9.28c0.07-0.5,0.11-1.02,0.11-1.54v-4.1H1024.4z"/>
			<path id="XMLID_175_" class="st39" d="M1025.21,464.94c0,0.52-0.04,1.04-0.11,1.54c-0.75,5.25-5.26,9.28-10.72,9.28
				s-9.97-4.04-10.72-9.28c-0.07-0.5-0.11-1.02-0.11-1.54c0-0.52,0.04-1.04,0.11-1.54c0.75-5.25,5.26-9.29,10.72-9.29
				s9.97,4.04,10.72,9.29C1025.17,463.9,1025.21,464.41,1025.21,464.94z"/>
			<path id="XMLID_174_" class="st38" d="M1025.21,464.94c0,0.52-0.04,1.04-0.11,1.54h-21.44c-0.07-0.5-0.11-1.02-0.11-1.54
				c0-0.52,0.04-1.04,0.11-1.54h21.44C1025.17,463.9,1025.21,464.41,1025.21,464.94z"/>
		</g>
	</g>
</g>
<g id="XMLID_217_" class="st0">
	<path id="XMLID_216_" class="st36" d="M1212.8,604.78h-86.34c-4.88,0-8.83-3.95-8.83-8.83V508.2c0-4.88,3.95-8.83,8.83-8.83h86.34
		c4.88,0,8.83,3.95,8.83,8.83v87.76C1221.63,600.83,1217.68,604.78,1212.8,604.78z"/>
	<g id="XMLID_215_" class="st29">
		<path id="XMLID_257_" class="st37" d="M1158.5,534.09h-13.32h-13.32c-1.72,0-3.27,0.72-4.39,1.88c-1.13,1.17-1.82,2.78-1.82,4.56
			c0,3.55,2.79,6.44,6.22,6.44h13.32h13.32c3.43,0,6.22-2.89,6.22-6.44c0-1.78-0.69-3.39-1.82-4.56
			C1161.77,534.81,1160.21,534.09,1158.5,534.09z"/>
		<path id="XMLID_258_" class="st37" d="M1158.5,558.37h-13.32h-13.32c-1.72,0-3.27,0.72-4.39,1.88c-1.13,1.17-1.82,2.78-1.82,4.56
			c0,3.55,2.79,6.44,6.22,6.44h13.32h13.32c3.43,0,6.22-2.89,6.22-6.44c0-1.79-0.69-3.39-1.82-4.56
			C1161.77,559.09,1160.21,558.37,1158.5,558.37z"/>
		<path id="XMLID_259_" class="st37" d="M1158.5,582.65h-13.32h-13.32c-1.72,0-3.27,0.72-4.39,1.88c-1.13,1.17-1.82,2.78-1.82,4.56
			c0,3.55,2.79,6.44,6.22,6.44h13.32h13.32c3.43,0,6.22-2.89,6.22-6.44c0-1.78-0.69-3.39-1.82-4.56
			C1161.77,583.37,1160.21,582.65,1158.5,582.65z"/>
		<path id="XMLID_260_" class="st37" d="M1179.85,546.97h13.32h13.32c3.43,0,6.22-2.89,6.22-6.44c0-1.78-0.69-3.39-1.82-4.56
			c-1.12-1.16-2.68-1.88-4.39-1.88h-13.32h-13.32c-1.72,0-3.27,0.72-4.39,1.88c-1.13,1.17-1.82,2.78-1.82,4.56
			C1173.63,544.09,1176.42,546.97,1179.85,546.97z"/>
		<path id="XMLID_261_" class="st37" d="M1206.5,558.37h-13.32h-13.32c-1.72,0-3.27,0.72-4.39,1.88c-1.13,1.17-1.82,2.78-1.82,4.56
			c0,3.55,2.79,6.44,6.22,6.44h13.32h13.32c3.43,0,6.22-2.89,6.22-6.44c0-1.79-0.69-3.39-1.82-4.56
			C1209.77,559.09,1208.21,558.37,1206.5,558.37z"/>
		<path id="XMLID_262_" class="st37" d="M1206.5,582.65h-13.32h-13.32c-1.72,0-3.27,0.72-4.39,1.88c-1.13,1.17-1.82,2.78-1.82,4.56
			c0,3.55,2.79,6.44,6.22,6.44h13.32h13.32c3.43,0,6.22-2.89,6.22-6.44c0-1.78-0.69-3.39-1.82-4.56
			C1209.77,583.37,1208.21,582.65,1206.5,582.65z"/>
	</g>
	<g id="XMLID_185_" class="st29">
		<g id="XMLID_184_">
			<path id="XMLID_192_" class="st40" d="M1145.17,538.73v5.03h-13.32c-3.43,0-6.22-2.89-6.22-6.44c0,0.78,0.62,1.42,1.37,1.42
				H1145.17z"/>
			<path id="XMLID_196_" class="st7" d="M1145.17,530.87v7.86H1127c-0.75,0-1.37-0.64-1.37-1.42c0-1.79,0.69-3.39,1.82-4.56
				c1.12-1.16,2.68-1.88,4.39-1.88H1145.17z"/>
			<path id="XMLID_198_" class="st16" d="M1164.72,537.31c0,3.55-2.79,6.44-6.22,6.44h-13.32v-5.03h18.17
				C1164.1,538.73,1164.72,538.09,1164.72,537.31z"/>
			<path id="XMLID_193_" class="st28" d="M1164.72,537.31c0,0.78-0.62,1.42-1.37,1.42h-18.17v-7.86h13.32
				c1.72,0,3.27,0.72,4.39,1.88C1164.02,533.92,1164.72,535.53,1164.72,537.31z"/>
		</g>
		<g id="XMLID_186_">
			<path id="XMLID_190_" class="st40" d="M1145.17,563.01v5.02h-13.32c-3.43,0-6.22-2.89-6.22-6.44c0,0.78,0.62,1.42,1.37,1.42
				H1145.17z"/>
			<path id="XMLID_189_" class="st7" d="M1145.17,555.15v7.86H1127c-0.75,0-1.37-0.64-1.37-1.42c0-1.78,0.69-3.39,1.82-4.56
				c1.12-1.16,2.68-1.88,4.39-1.88H1145.17z"/>
			<path id="XMLID_188_" class="st16" d="M1164.72,561.59c0,3.55-2.79,6.44-6.22,6.44h-13.32v-5.02h18.17
				C1164.1,563.01,1164.72,562.37,1164.72,561.59z"/>
			<path id="XMLID_187_" class="st28" d="M1164.72,561.59c0,0.78-0.62,1.42-1.37,1.42h-18.17v-7.86h13.32
				c1.72,0,3.27,0.72,4.39,1.88C1164.02,558.2,1164.72,559.81,1164.72,561.59z"/>
		</g>
		<g id="XMLID_191_">
			<path id="XMLID_199_" class="st40" d="M1145.17,587.29v5.03h-13.32c-3.43,0-6.22-2.89-6.22-6.44c0,0.78,0.62,1.42,1.37,1.42
				H1145.17z"/>
			<path id="XMLID_197_" class="st7" d="M1145.17,579.43v7.86H1127c-0.75,0-1.37-0.64-1.37-1.42c0-1.79,0.69-3.39,1.82-4.56
				c1.12-1.16,2.68-1.88,4.39-1.88H1145.17z"/>
			<path id="XMLID_195_" class="st16" d="M1164.72,585.87c0,3.55-2.79,6.44-6.22,6.44h-13.32v-5.03h18.17
				C1164.1,587.29,1164.72,586.65,1164.72,585.87z"/>
			<path id="XMLID_194_" class="st28" d="M1164.72,585.87c0,0.78-0.62,1.42-1.37,1.42h-18.17v-7.86h13.32
				c1.72,0,3.27,0.72,4.39,1.88C1164.02,582.48,1164.72,584.08,1164.72,585.87z"/>
		</g>
		<g id="XMLID_210_">
			<path id="XMLID_214_" class="st40" d="M1193.17,538.73v5.03h-13.32c-3.43,0-6.22-2.89-6.22-6.44c0,0.78,0.62,1.42,1.37,1.42
				H1193.17z"/>
			<path id="XMLID_213_" class="st7" d="M1193.17,530.87v7.86H1175c-0.75,0-1.37-0.64-1.37-1.42c0-1.79,0.69-3.39,1.82-4.56
				c1.12-1.16,2.68-1.88,4.39-1.88H1193.17z"/>
			<path id="XMLID_212_" class="st16" d="M1212.72,537.31c0,3.55-2.79,6.44-6.22,6.44h-13.32v-5.03h18.17
				C1212.1,538.73,1212.72,538.09,1212.72,537.31z"/>
			<path id="XMLID_211_" class="st28" d="M1212.72,537.31c0,0.78-0.62,1.42-1.37,1.42h-18.17v-7.86h13.32
				c1.72,0,3.27,0.72,4.39,1.88C1212.02,533.92,1212.72,535.53,1212.72,537.31z"/>
		</g>
		<g id="XMLID_205_">
			<path id="XMLID_209_" class="st40" d="M1193.17,563.01v5.02h-13.32c-3.43,0-6.22-2.89-6.22-6.44c0,0.78,0.62,1.42,1.37,1.42
				H1193.17z"/>
			<path id="XMLID_208_" class="st7" d="M1193.17,555.15v7.86H1175c-0.75,0-1.37-0.64-1.37-1.42c0-1.78,0.69-3.39,1.82-4.56
				c1.12-1.16,2.68-1.88,4.39-1.88H1193.17z"/>
			<path id="XMLID_207_" class="st16" d="M1212.72,561.59c0,3.55-2.79,6.44-6.22,6.44h-13.32v-5.02h18.17
				C1212.1,563.01,1212.72,562.37,1212.72,561.59z"/>
			<path id="XMLID_206_" class="st28" d="M1212.72,561.59c0,0.78-0.62,1.42-1.37,1.42h-18.17v-7.86h13.32
				c1.72,0,3.27,0.72,4.39,1.88C1212.02,558.2,1212.72,559.81,1212.72,561.59z"/>
		</g>
		<g id="XMLID_200_">
			<path id="XMLID_204_" class="st40" d="M1193.17,587.29v5.03h-13.32c-3.43,0-6.22-2.89-6.22-6.44c0,0.78,0.62,1.42,1.37,1.42
				H1193.17z"/>
			<path id="XMLID_203_" class="st7" d="M1193.17,579.43v7.86H1175c-0.75,0-1.37-0.64-1.37-1.42c0-1.79,0.69-3.39,1.82-4.56
				c1.12-1.16,2.68-1.88,4.39-1.88H1193.17z"/>
			<path id="XMLID_202_" class="st16" d="M1212.72,585.87c0,3.55-2.79,6.44-6.22,6.44h-13.32v-5.03h18.17
				C1212.1,587.29,1212.72,586.65,1212.72,585.87z"/>
			<path id="XMLID_201_" class="st28" d="M1212.72,585.87c0,0.78-0.62,1.42-1.37,1.42h-18.17v-7.86h13.32
				c1.72,0,3.27,0.72,4.39,1.88C1212.02,582.48,1212.72,584.08,1212.72,585.87z"/>
		</g>
	</g>
</g>
<g id="XMLID_218_" class="st0">
	<path id="XMLID_239_" class="st41" d="M1120.57,293.92V440.3c0,10.69,2.79,19.35,6.23,19.35h-26.4c-10.68,0-19.35-8.66-19.35-19.35
		V293.92c0-6.41,1.27-12.7,3.69-18.51c2.41-5.81,5.95-11.15,10.48-15.69c9.07-9.07,14.17-21.38,14.17-34.21v-22.47h20.3v22.47
		c0,12.83-1.64,25.14-4.57,34.21c-1.46,4.54-2.61,9.88-3.38,15.69C1120.98,281.22,1120.57,287.51,1120.57,293.92z"/>
	<path id="XMLID_238_" class="st42" d="M1197.69,293.92V440.3c0,10.69-8.66,19.35-19.35,19.35h-51.54c-3.45,0-6.23-8.66-6.23-19.35
		V293.92c0-6.41,0.41-12.7,1.19-18.51c0.77-5.81,1.92-11.15,3.38-15.69c2.93-9.07,4.57-21.38,4.57-34.21v-22.47h39.65v22.47
		c0,6.41,1.27,12.7,3.68,18.51c2.42,5.82,5.96,11.16,10.48,15.7C1192.59,268.79,1197.69,281.1,1197.69,293.92z"/>
	<path id="XMLID_237_" class="st43" d="M1173.56,224.3c0,1.65-0.67,3.15-1.76,4.24c-1.08,1.08-2.59,1.75-4.24,1.75h-56.38
		c-3.31,0-5.99-2.68-5.99-5.99c0-1.65,0.67-3.16,1.75-4.24c1.09-1.08,2.59-1.76,4.24-1.76h56.38
		C1170.88,218.3,1173.56,220.99,1173.56,224.3z"/>
	<path id="XMLID_236_" class="st44" d="M1173.56,224.3c0,1.65-0.67,3.15-1.76,4.24c-1.08,1.08-2.59,1.75-4.24,1.75h-36.63
		c-3.31,0-5.99-2.68-5.99-5.99c0-1.65,0.67-3.16,1.76-4.24c1.08-1.08,2.58-1.76,4.23-1.76h36.63
		C1170.88,218.3,1173.56,220.99,1173.56,224.3z"/>
	<path id="XMLID_235_" class="st45" d="M1176.17,180.79v34.72h-73.59v-34.72c0-4.26,3.96-7.7,8.84-7.7h55.92
		C1172.21,173.09,1176.17,176.54,1176.17,180.79z"/>
	<rect id="XMLID_234_" x="1081.06" y="307.41" class="st46" width="116.63" height="92.83"/>
	<rect id="XMLID_233_" x="1081.06" y="307.41" class="st35" width="116.63" height="92.83"/>
	<g id="XMLID_221_" class="st29">
		<defs>
			<rect id="XMLID_222_" x="1081.06" y="307.41" width="116.63" height="92.83"/>
		</defs>
		<clipPath id="XMLID_240_">
			<use xlink:href="#XMLID_222_"  style="overflow:visible;"/>
		</clipPath>
	</g>
	<rect id="XMLID_220_" x="1081.06" y="307.41" class="st47" width="39.51" height="92.83"/>
	<path id="XMLID_219_" class="st36" d="M1176.17,180.79v34.72h-44.49v-34.72c0-4.26,3.86-7.7,8.61-7.7h27.27
		C1172.31,173.09,1176.17,176.54,1176.17,180.79z"/>
</g>
</svg>
